<?xml version="1.0" encoding="utf-8"?>
<!-- Generator: Adobe Illustrator 26.3.1, SVG Export Plug-In . SVG Version: 6.00 Build 0)  -->
<svg version="1.1" id="레이어_1" xmlns="http://www.w3.org/2000/svg" xmlns:xlink="http://www.w3.org/1999/xlink" x="0px"
	 y="0px" viewBox="0 0 36.89 36.89" style="enable-background:new 0 0 36.89 36.89;" xml:space="preserve">
<style type="text/css">
	.st0{fill:#222222;}
	.st1{fill:#FFFFFF;}
</style>
<rect class="st0" width="36.89" height="36.89"/>
<path class="st1" d="M24.66,5.05c-2.56-1.24-5.55-1.86-8.98-1.86H4.19v14.02l9.18,9.18V10.91h3.02c2.16,0,3.86,0.72,5.1,2.17
	c1.24,1.45,1.86,3.27,1.86,5.46c0,2.45-0.61,4.39-1.84,5.81c-1.23,1.42-2.98,2.13-5.26,2.13h-2.8l7.23,7.23
	c2.97-0.6,5.46-1.75,7.45-3.49c3.04-2.65,4.57-6.54,4.57-11.69c0-3.1-0.7-5.82-2.11-8.14C29.19,8.08,27.21,6.29,24.66,5.05z"/>
</svg>
