<?xml version="1.0" encoding="utf-8"?>
<!-- Generator: Adobe Illustrator 26.3.1, SVG Export Plug-In . SVG Version: 6.00 Build 0)  -->
<svg version="1.1" id="레이어_1" xmlns="http://www.w3.org/2000/svg" xmlns:xlink="http://www.w3.org/1999/xlink" x="0px"
	 y="0px" viewBox="0 0 133.06 33.04" style="enable-background:new 0 0 133.06 33.04;" xml:space="preserve">
<style type="text/css">
	.st0{fill:#FFFFFF;}
</style>
<g>
	<polygon class="st0" points="10.11,24.16 10.02,24.07 10.02,24.16 	"/>
	<g>
		<path class="st0" d="M21.31,2.74c-2.56-1.24-5.55-1.86-8.98-1.86H0.84v14.02l9.18,9.18V8.59h3.02c2.16,0,3.86,0.72,5.1,2.17
			c1.24,1.45,1.86,3.27,1.86,5.46c0,2.45-0.61,4.39-1.84,5.81c-1.23,1.42-2.98,2.13-5.26,2.13h-2.8l7.23,7.23
			c2.97-0.6,5.46-1.75,7.45-3.49c3.04-2.65,4.57-6.54,4.57-11.69c0-3.1-0.7-5.82-2.11-8.14C25.85,5.76,23.87,3.98,21.31,2.74z"/>
		<path class="st0" d="M60.52,17.73c0.96-1.63,1.44-3.59,1.44-5.9c0-3.55-1.08-6.26-3.24-8.14c-2.16-1.88-5.1-2.82-8.83-2.82H35.48
			v31h9.18v-9.09h3.02l4.52,9.09h9.4l-5.19-10.42C58.19,20.59,59.55,19.35,60.52,17.73z M51.38,14.69c-0.78,0.55-1.88,0.82-3.3,0.82
			h-3.42V8.15h3.42c1.42,0,2.52,0.27,3.3,0.82s1.18,1.5,1.18,2.86C52.56,13.19,52.16,14.14,51.38,14.69z"/>
		<path class="st0" d="M91.78,2.25c-2.53-1.36-5.36-2.04-8.49-2.04c-3.13,0-5.98,0.68-8.54,2.04c-2.56,1.36-4.57,3.27-6.03,5.72
			c-1.46,2.45-2.2,5.26-2.2,8.43c0,3.16,0.73,5.97,2.2,8.4c1.46,2.44,3.47,4.34,6.03,5.7c2.56,1.36,5.4,2.04,8.54,2.04
			c3.13,0,5.96-0.68,8.49-2.04c2.53-1.36,4.52-3.26,5.99-5.7c1.46-2.44,2.2-5.24,2.2-8.4c0-3.16-0.73-5.97-2.2-8.43
			C96.31,5.51,94.31,3.61,91.78,2.25z M89.63,20.41c-0.65,1.14-1.53,2.01-2.64,2.62c-1.11,0.61-2.34,0.91-3.7,0.91
			c-1.39,0-2.65-0.3-3.77-0.91c-1.12-0.61-2.01-1.48-2.66-2.62c-0.65-1.14-0.98-2.48-0.98-4.01c0-2.28,0.7-4.09,2.11-5.46
			c1.4-1.36,3.17-2.04,5.3-2.04c2.1,0,3.84,0.68,5.23,2.04c1.39,1.36,2.08,3.18,2.08,5.46C90.61,17.93,90.28,19.27,89.63,20.41z"/>
		<path class="st0" d="M129.26,3.73c-2.2-1.91-5.17-2.86-8.89-2.86h-14.28v31h9.18V23h5.1c3.73,0,6.69-0.96,8.89-2.88
			c2.2-1.92,3.3-4.66,3.3-8.2C132.56,8.37,131.46,5.64,129.26,3.73z M121.96,14.89c-0.8,0.56-1.91,0.84-3.33,0.84h-3.37V8.15h3.37
			c1.42,0,2.53,0.28,3.33,0.84c0.8,0.56,1.2,1.54,1.2,2.93C123.16,13.34,122.76,14.33,121.96,14.89z"/>
	</g>
</g>
</svg>
